<?xml version="1.0" standalone="no"?>
<!DOCTYPE svg PUBLIC "-//W3C//DTD SVG 20010904//EN"
 "http://www.w3.org/TR/2001/REC-SVG-20010904/DTD/svg10.dtd">
<svg version="1.0" xmlns="http://www.w3.org/2000/svg"
 width="280.000000pt" height="271.000000pt" viewBox="0 0 280.000000 271.000000"
 preserveAspectRatio="xMidYMid meet">
<metadata>
Created by potrace 1.10, written by Peter Selinger 2001-2011
</metadata>
<g transform="translate(0.000000,271.000000) scale(0.100000,-0.100000)"
fill="#000000" stroke="none">
<path d="M1250 2487 c0 -6 15 -7 36 -4 34 6 36 5 30 -18 -12 -46 -26 -76 -34
-71 -5 3 -17 23 -27 45 -10 22 -26 43 -35 46 -49 16 -267 -51 -396 -121 -323
-174 -547 -488 -604 -844 -13 -84 -13 -276 0 -360 14 -89 66 -252 102 -325 72
-143 188 -291 297 -379 128 -103 120 -80 -16 48 -237 223 -358 487 -368 801
-12 383 160 732 471 959 99 71 269 154 364 176 30 7 74 18 98 25 41 12 42 12
48 -11 3 -13 4 -44 2 -69 -2 -35 0 -44 10 -40 8 3 15 5 16 5 2 0 0 20 -4 45
-4 25 -5 45 -4 45 2 0 15 -21 28 -47 16 -33 26 -43 30 -33 3 8 12 33 20 55
l15 40 1 -40 c2 -22 2 -43 1 -47 0 -5 9 -8 22 -8 12 0 17 3 11 8 -16 11 -26
109 -11 115 14 5 211 -18 281 -32 26 -6 87 -27 135 -47 47 -19 104 -42 125
-50 43 -16 55 -25 184 -130 128 -104 210 -201 290 -344 58 -104 108 -261 127
-395 14 -99 7 -267 -15 -368 -51 -233 -144 -406 -315 -582 -52 -54 -95 -102
-95 -107 0 -31 193 163 252 254 134 202 208 437 208 660 -1 556 -416 1048
-965 1142 -100 17 -315 20 -315 3z"/>
<path d="M1401 2436 c-7 -8 -11 -27 -9 -43 3 -24 8 -28 33 -28 23 0 32 6 39
26 5 15 6 34 3 43 -8 20 -50 21 -66 2z m47 -28 c-4 -44 -38 -53 -38 -10 0 32
7 42 27 42 10 0 13 -10 11 -32z"/>
<path d="M1501 2436 c-12 -14 -12 -16 2 -10 15 5 15 2 6 -25 -17 -48 -5 -60
17 -16 10 21 25 41 33 43 14 5 14 2 -5 -65 -5 -17 -2 -23 9 -23 9 0 19 5 23
12 4 7 3 8 -4 4 -14 -9 -15 4 -3 37 13 33 -2 56 -26 41 -14 -9 -20 -8 -28 3
-10 13 -13 13 -24 -1z"/>
<path d="M1094 2395 c-5 -11 -10 -13 -19 -5 -14 12 -25 3 -25 -19 0 -13 2 -13
9 -3 6 10 10 3 15 -22 10 -52 30 -59 21 -7 -5 33 -4 42 9 47 18 7 22 24 6 24
-6 0 -13 -7 -16 -15z"/>
<path d="M1626 2388 c-30 -42 -9 -87 34 -73 29 9 25 23 -5 17 -18 -3 -25 0
-25 11 0 10 11 17 28 19 19 2 27 9 27 23 0 29 -39 32 -59 3z"/>
<path d="M1714 2368 c-4 -7 -3 -8 4 -4 15 9 16 -42 2 -79 -9 -23 -15 -26 -36
-21 -17 5 -23 3 -19 -4 10 -17 38 -11 77 15 45 31 65 62 49 78 -8 8 -11 5 -11
-9 0 -12 -8 -29 -19 -38 -18 -16 -18 -16 -14 29 5 36 3 45 -10 45 -9 0 -19 -5
-23 -12z"/>
<path d="M996 2362 c-2 -4 -1 -14 5 -22 11 -19 12 -70 0 -70 -5 0 -15 16 -21
35 -10 31 -40 50 -40 25 0 -5 4 -10 8 -10 4 0 13 -13 19 -30 12 -31 36 -39 50
-17 4 6 14 12 22 12 8 0 16 7 18 15 4 13 3 13 -6 0 -8 -12 -12 -9 -20 13 -6
16 -11 32 -11 37 0 13 -18 22 -24 12z"/>
<path d="M1910 2320 c0 -7 -13 -28 -30 -47 -37 -41 -37 -56 -4 -82 24 -19 28
-19 55 -6 15 9 33 24 39 35 6 11 17 20 25 20 18 0 20 17 3 22 -7 3 -22 -9 -33
-25 -28 -42 -51 -55 -72 -41 -28 18 -26 36 11 76 29 31 32 39 20 49 -11 9 -14
9 -14 -1z"/>
<path d="M867 2293 c-14 -14 -6 -61 14 -79 25 -23 53 -9 57 28 5 40 -46 76
-71 51z m49 -28 c17 -26 12 -45 -11 -45 -18 0 -38 37 -31 56 8 21 24 17 42
-11z"/>
<path d="M781 2266 c-7 -9 -9 -16 -3 -16 5 0 12 -11 14 -25 4 -16 1 -25 -8
-25 -23 0 -44 12 -38 22 3 5 -3 4 -15 -4 -27 -16 -27 -23 2 -25 39 -2 79 -23
84 -43 4 -16 8 -18 19 -9 11 9 10 14 -6 28 -11 9 -23 36 -27 65 -7 43 -10 47
-22 32z"/>
<path d="M1994 2188 c-4 -7 -3 -8 4 -4 7 4 12 4 12 -1 -1 -11 -86 -73 -101
-73 -8 0 -8 -4 1 -15 13 -16 35 -21 26 -6 -3 5 0 14 8 20 10 9 16 8 26 -4 17
-21 42 -19 68 5 27 26 28 40 3 47 -11 3 -17 11 -15 18 6 16 -23 28 -32 13z
m46 -46 c0 -15 -24 -32 -47 -32 -27 0 -30 15 -5 29 21 12 52 14 52 3z"/>
<path d="M1263 2106 c-58 -19 -104 -49 -151 -100 -74 -81 -103 -161 -128 -355
-8 -69 -22 -153 -31 -185 -37 -148 -127 -256 -212 -256 -36 0 -66 36 -54 66
14 38 -27 -7 -55 -60 -24 -45 -27 -62 -27 -147 0 -86 3 -101 30 -154 27 -52
98 -126 110 -114 2 3 16 45 30 93 56 192 96 228 315 281 87 21 115 37 136 76
14 29 18 96 8 137 -11 38 -24 24 -24 -27 0 -102 -23 -127 -141 -155 -198 -46
-265 -101 -314 -260 -28 -92 -47 -95 -89 -13 -25 48 -30 71 -30 125 0 75 19
142 39 142 8 0 16 -4 19 -9 9 -14 56 -19 92 -9 47 13 128 98 163 172 30 65 55
163 65 261 14 124 38 230 66 285 37 73 114 143 183 166 101 34 230 15 276 -40
8 -9 30 -25 50 -37 70 -39 106 -124 99 -233 -5 -81 -31 -146 -76 -192 -16 -18
-40 -54 -52 -80 -11 -27 -38 -66 -58 -87 l-37 -38 0 -167 c0 -158 -2 -171 -28
-242 -15 -41 -34 -81 -41 -89 -13 -12 -17 -8 -31 25 -56 134 -68 226 -51 391
l9 82 -36 36 c-43 43 -67 47 -41 8 9 -16 24 -33 32 -39 12 -8 13 -23 8 -65
-26 -207 -20 -254 58 -452 l43 -112 17 40 c40 95 87 228 97 276 11 49 9 105
-7 237 -7 53 -6 54 30 84 36 30 76 94 76 122 0 9 13 25 29 37 42 31 79 105 93
188 11 63 10 81 -5 139 -22 83 -53 131 -102 157 -20 11 -52 34 -71 52 -19 18
-51 37 -72 43 -50 14 -158 12 -209 -4z"/>
<path d="M675 2099 c-4 -6 -13 -8 -20 -5 -8 3 -12 -4 -11 -19 0 -13 4 -21 9
-18 4 2 19 -5 33 -16 15 -12 32 -21 39 -21 16 0 27 27 15 35 -5 3 -10 -1 -12
-9 -2 -11 -10 -9 -32 9 -25 20 -28 26 -17 39 8 9 11 16 8 16 -3 0 -9 -5 -12
-11z"/>
<path d="M2130 2060 c0 -6 6 -10 13 -10 6 0 -7 -11 -31 -25 -23 -13 -50 -21
-58 -18 -14 5 -14 3 -3 -16 8 -11 17 -21 22 -21 4 0 6 4 3 9 -3 5 7 14 22 20
15 6 40 20 55 30 l27 18 -25 11 c-15 7 -25 8 -25 2z"/>
<path d="M621 2021 c-21 -13 -9 -64 18 -77 13 -7 30 -10 37 -7 19 7 28 43 15
56 -9 9 -11 5 -9 -13 2 -17 -3 -25 -16 -28 -16 -3 -18 0 -13 26 7 33 -10 56
-32 43z"/>
<path d="M2129 1965 c-34 -19 -41 -38 -23 -64 19 -26 50 -27 92 -1 74 45 8
107 -69 65z m91 -15 c0 -17 -54 -50 -82 -50 -40 0 -34 29 10 51 32 16 72 15
72 -1z"/>
<path d="M525 1911 c-26 -51 8 -101 69 -101 52 0 75 76 31 104 -14 9 -25 14
-25 12 0 -2 -3 -12 -6 -20 -4 -11 -2 -15 7 -11 8 3 20 1 28 -4 26 -16 -2 -61
-37 -61 -56 0 -87 81 -34 88 12 2 20 8 17 13 -12 18 -35 9 -50 -20z"/>
<path d="M2228 1868 c10 -10 3 -15 -29 -24 -23 -7 -47 -10 -54 -7 -10 3 -12
-2 -8 -16 5 -21 23 -30 23 -12 0 5 25 15 55 22 30 7 55 14 55 17 0 7 -34 31
-44 32 -6 0 -5 -5 2 -12z"/>
<path d="M1675 1120 c21 -22 37 -41 34 -44 -2 -2 -23 -13 -46 -25 -24 -12 -43
-23 -43 -26 0 -3 21 -15 46 -28 l45 -23 -75 -58 c-130 -99 -204 -194 -227
-291 -19 -79 -21 -83 -30 -37 -21 111 -94 215 -223 318 l-86 68 47 27 47 27
-47 23 c-26 13 -47 27 -47 31 0 5 12 20 26 33 35 32 22 31 -78 -5 -88 -32
-129 -63 -158 -121 -35 -67 -130 -499 -130 -590 0 -23 9 -34 43 -56 65 -42
212 -103 317 -131 87 -24 112 -26 290 -26 135 -1 201 3 215 11 18 11 17 12
-12 13 -18 0 -96 23 -175 50 -173 61 -248 82 -248 68 0 -10 98 -57 163 -77
115 -38 -55 -38 -210 -1 -95 22 -217 70 -292 112 l-54 31 7 70 c12 130 84 442
118 512 16 32 34 51 69 69 58 32 70 32 97 3 20 -21 20 -25 7 -43 -25 -33 -17
-51 43 -100 113 -95 173 -163 208 -239 19 -41 34 -78 34 -83 0 -5 9 -17 20
-27 27 -24 37 -13 74 75 38 91 83 148 178 230 104 87 115 103 93 136 -14 23
-14 27 7 64 26 45 31 46 81 25 47 -19 82 -64 101 -127 23 -80 65 -275 74 -344
l8 -61 -44 23 c-25 13 -54 24 -66 24 -35 0 -44 12 -76 105 -18 50 -40 98 -49
108 -14 15 -11 -7 18 -112 33 -125 36 -131 60 -131 66 0 151 -46 151 -80 0 -6
-13 -25 -29 -41 -26 -26 -36 -29 -88 -28 l-58 1 63 29 c34 16 62 36 62 44 0
16 -58 35 -111 35 -22 0 -61 -12 -93 -30 -87 -45 -146 -53 -432 -55 -274 -3
-291 -5 -348 -54 -18 -15 -19 -15 -11 4 4 11 15 49 23 85 8 36 29 124 46 197
18 72 28 129 23 126 -20 -12 -59 -126 -88 -258 -27 -119 -30 -147 -19 -160 16
-19 38 -19 75 2 26 14 68 17 285 18 279 2 356 12 448 59 28 14 65 26 83 26
l31 0 -27 -32 -27 -32 28 -24 c24 -21 35 -24 77 -18 32 3 59 14 74 27 12 13
26 20 29 17 15 -15 -155 -109 -265 -147 l-63 -22 -142 45 c-206 65 -263 78
-307 71 -37 -6 -64 -25 -37 -25 57 -1 169 -28 316 -75 l173 -56 67 22 c75 24
245 109 285 142 l26 22 -20 124 c-29 189 -87 440 -114 496 -32 65 -76 94 -178
117 -45 9 -86 18 -92 18 -5 0 8 -18 30 -40z"/>
<path d="M1710 725 c0 -106 -16 -150 -63 -170 -49 -20 -179 -34 -353 -37 -169
-3 -171 -3 -206 66 -15 28 -22 67 -26 129 -4 70 -7 85 -16 71 -6 -11 -10 -55
-11 -99 0 -63 5 -89 22 -120 42 -80 43 -80 247 -79 187 2 320 15 364 37 34 16
61 55 72 103 10 43 -6 184 -21 184 -5 0 -9 -38 -9 -85z"/>
</g>
</svg>
