<?xml version="1.0" standalone="no"?>
<!DOCTYPE svg PUBLIC "-//W3C//DTD SVG 20010904//EN"
 "http://www.w3.org/TR/2001/REC-SVG-20010904/DTD/svg10.dtd">
<svg version="1.0" xmlns="http://www.w3.org/2000/svg"
 width="220.000000pt" height="263.000000pt" viewBox="0 0 220.000000 263.000000"
 preserveAspectRatio="xMidYMid meet">
<metadata>
Created by potrace 1.10, written by Peter Selinger 2001-2011
</metadata>
<g transform="translate(0.000000,263.000000) scale(0.100000,-0.100000)"
fill="#000000" stroke="none">
<path d="M983 2574 c4 -4 20 -7 37 -6 34 1 37 -9 16 -59 l-14 -33 -21 42 c-26
52 -61 60 -152 37 -488 -124 -829 -555 -829 -1050 0 -284 109 -545 315 -757
75 -77 168 -147 141 -107 -8 13 -42 48 -76 77 -120 106 -228 264 -291 427 -36
90 -68 259 -69 353 -1 318 164 649 425 847 117 89 224 138 450 206 39 12 48 1
44 -60 -3 -43 -1 -51 13 -51 14 0 15 5 7 32 -16 59 -9 64 18 13 l26 -50 17 50
17 50 7 -32 c4 -18 5 -37 1 -43 -3 -6 3 -10 16 -10 16 0 19 3 11 13 -5 6 -12
32 -13 57 l-4 45 80 -3 c88 -4 227 -32 290 -57 22 -10 64 -28 93 -41 29 -13
56 -24 59 -24 26 0 250 -185 305 -252 78 -96 143 -212 196 -353 66 -175 66
-465 0 -654 -60 -172 -140 -300 -277 -438 -72 -73 -94 -111 -43 -74 34 25 128
122 173 181 168 218 242 476 217 763 -15 183 -100 400 -211 544 -107 139 -270
266 -430 335 -152 66 -214 79 -392 84 -87 3 -156 2 -152 -2z"/>
<path d="M1132 2528 c-18 -18 -15 -67 4 -75 27 -10 49 11 49 48 0 26 -4 35
-20 37 -11 1 -26 -3 -33 -10z m42 -14 c8 -20 -12 -56 -27 -51 -17 5 -21 35 -7
52 16 19 26 19 34 -1z"/>
<path d="M1214 2518 c-4 -7 -3 -8 4 -4 14 9 16 -22 3 -44 -6 -8 -7 -18 -4 -24
3 -5 13 6 22 24 24 51 43 51 35 1 -6 -40 6 -56 22 -29 5 7 3 8 -6 3 -10 -6
-12 -4 -7 9 4 10 10 29 13 43 6 24 5 25 -20 21 -14 -3 -26 -1 -26 3 0 13 -28
11 -36 -3z"/>
<path d="M844 2486 c-3 -8 -13 -12 -25 -9 -14 4 -19 0 -19 -13 0 -14 2 -16 9
-6 7 11 10 10 15 -3 3 -9 6 -25 6 -36 0 -10 5 -19 11 -19 7 0 9 12 5 35 -5 27
-3 37 9 41 17 7 21 24 5 24 -6 0 -13 -6 -16 -14z"/>
<path d="M1336 2478 c-20 -28 -20 -42 -1 -58 12 -10 21 -10 38 -2 22 11 22 11
-3 9 -16 -1 -25 4 -28 15 -2 12 2 15 15 12 25 -6 47 11 40 30 -9 23 -43 20
-61 -6z"/>
<path d="M1414 2458 c-5 -8 -2 -9 10 -5 15 6 16 2 10 -31 -8 -47 -22 -64 -45
-57 -11 4 -19 2 -19 -4 0 -29 85 10 115 52 19 27 19 37 0 37 -8 0 -12 -6 -9
-13 2 -7 -3 -21 -13 -30 -18 -15 -18 -14 -15 24 3 30 1 39 -11 39 -9 0 -19 -5
-23 -12z"/>
<path d="M755 2443 c15 -35 17 -61 6 -68 -7 -4 -16 6 -22 24 -12 33 -39 43
-39 14 0 -14 2 -15 9 -4 7 10 11 6 16 -17 7 -34 33 -50 41 -27 4 8 15 15 25
15 11 0 19 7 19 18 0 13 -2 14 -9 3 -6 -10 -12 -4 -21 23 -6 20 -16 36 -22 36
-6 0 -7 -7 -3 -17z"/>
<path d="M1593 2414 c3 -3 -8 -24 -24 -47 -26 -36 -28 -43 -15 -61 22 -34 56
-30 99 9 34 33 41 55 16 55 -6 0 -8 -4 -5 -8 3 -5 -10 -24 -30 -43 -27 -27
-38 -31 -51 -23 -28 18 -26 33 10 69 24 24 31 37 23 45 -5 5 -14 10 -20 10 -5
0 -7 -3 -3 -6z"/>
<path d="M632 2388 c-18 -18 -15 -45 8 -68 16 -16 25 -18 40 -10 25 13 26 52
2 73 -22 20 -34 21 -50 5z m55 -52 c-5 -16 -28 -13 -40 5 -6 9 -7 25 -3 35 7
18 9 18 27 -5 11 -13 18 -29 16 -35z"/>
<path d="M551 2366 c-7 -8 -8 -16 -3 -18 5 -1 13 -13 16 -25 9 -27 -14 -32
-37 -8 -13 12 -17 12 -26 1 -9 -11 -3 -16 33 -25 30 -7 47 -18 51 -31 5 -17
10 -19 21 -9 11 9 10 14 -7 28 -14 11 -21 30 -22 59 -2 45 -8 50 -26 28z"/>
<path d="M1678 2292 c10 -7 4 -17 -26 -41 -22 -17 -45 -31 -52 -31 -10 0 -10
-3 0 -15 11 -14 14 -13 25 1 9 13 16 14 33 5 17 -9 28 -8 52 4 36 18 39 42 8
54 -13 5 -22 12 -20 17 2 5 -5 10 -15 12 -13 2 -15 1 -5 -6z m42 -40 c0 -15
-24 -32 -47 -32 -29 0 -30 14 0 28 27 13 47 15 47 4z"/>
<path d="M1010 2221 c-83 -26 -168 -98 -209 -179 -27 -53 -48 -143 -66 -287
-17 -141 -42 -222 -87 -279 -67 -88 -129 -115 -168 -76 -12 12 -19 28 -16 36
10 27 -14 14 -34 -18 -50 -81 -56 -205 -16 -294 27 -58 93 -132 106 -117 4 4
15 37 24 73 23 84 51 149 79 178 32 35 101 67 187 87 114 27 139 39 155 79 18
43 19 85 3 123 -11 27 -12 25 -19 -35 -12 -93 -22 -102 -159 -137 -155 -39
-218 -93 -261 -223 -27 -83 -32 -89 -56 -62 -44 47 -64 164 -42 243 9 34 13
38 32 32 49 -16 86 -16 114 -2 38 20 106 95 132 146 27 52 57 179 71 301 18
159 50 241 119 303 51 46 89 65 153 77 75 15 147 -2 199 -46 22 -19 54 -42 70
-51 55 -32 88 -147 69 -239 -12 -60 -53 -144 -70 -144 -5 0 -23 -26 -39 -57
-17 -32 -45 -75 -63 -95 l-33 -37 0 -153 c0 -123 -4 -163 -18 -203 -31 -85
-42 -105 -52 -102 -13 5 -51 109 -66 185 -10 48 -10 79 1 160 14 111 9 133
-45 168 -37 24 -39 13 -4 -29 l30 -36 -16 -92 c-16 -90 -14 -147 7 -219 17
-62 91 -250 97 -250 11 0 92 236 104 303 8 51 8 84 -1 137 -18 106 -16 123 17
141 17 10 39 39 56 75 16 33 43 73 60 89 112 106 95 380 -28 438 -18 9 -42 26
-53 38 -34 38 -93 59 -169 58 -38 0 -81 -4 -95 -8z"/>
<path d="M455 2210 c-3 -5 -12 -7 -20 -4 -30 12 -2 -32 34 -53 40 -23 51 -21
51 6 0 14 -2 14 -10 1 -7 -12 -13 -11 -34 9 -20 19 -23 27 -15 38 6 7 9 13 6
13 -3 0 -8 -4 -12 -10z"/>
<path d="M1808 2172 c11 -7 6 -14 -22 -31 -20 -12 -40 -20 -46 -16 -13 8 -13
-6 0 -25 9 -13 11 -13 20 1 5 8 27 24 50 34 37 17 53 35 31 35 -5 0 -18 3 -28
6 -13 4 -14 3 -5 -4z"/>
<path d="M397 2134 c-21 -21 11 -74 45 -74 23 0 39 25 31 46 -6 17 -8 17 -13
-4 -7 -30 -25 -24 -25 8 0 24 -23 38 -38 24z"/>
<path d="M1811 2087 c-57 -29 -48 -77 13 -77 33 0 76 30 76 53 0 35 -45 47
-89 24z m73 -16 c8 -13 -27 -40 -62 -47 -26 -5 -32 -3 -32 11 0 10 8 24 18 31
19 15 68 18 76 5z"/>
<path d="M322 2064 c1 -5 -3 -19 -10 -31 -21 -38 21 -93 72 -93 19 0 46 34 46
58 0 23 -34 65 -44 55 -9 -9 -7 -33 2 -32 21 4 32 -3 32 -19 0 -42 -54 -57
-84 -23 -23 25 -17 52 14 68 14 7 20 13 13 13 -6 0 -19 3 -28 6 -9 4 -15 3
-13 -2z"/>
<path d="M1904 1991 c6 -10 -73 -33 -86 -25 -4 3 -8 -2 -8 -10 0 -8 5 -18 10
-21 6 -3 10 -2 10 3 0 5 25 15 55 22 44 11 53 16 44 27 -13 14 -33 18 -25 4z"/>
<path d="M1360 1334 c0 -5 14 -23 31 -40 l31 -32 -48 -25 -48 -24 42 -22 c23
-12 42 -25 42 -29 0 -4 -14 -16 -31 -26 -18 -11 -65 -50 -105 -89 -78 -74
-144 -183 -144 -238 0 -15 -4 -31 -10 -34 -6 -4 -10 5 -10 19 0 97 -103 234
-266 352 l-29 21 43 22 c23 12 42 23 42 26 0 3 -18 14 -41 26 l-41 20 23 25
c12 13 20 26 18 29 -12 11 -165 -56 -196 -87 -38 -37 -65 -113 -107 -298 -41
-184 -59 -322 -44 -332 103 -66 281 -134 412 -157 66 -12 257 -15 330 -5 48 7
64 24 22 24 -13 0 -88 22 -166 50 -139 49 -229 67 -185 37 11 -8 54 -27 95
-43 l75 -29 -40 -3 c-97 -9 -293 42 -427 109 l-78 39 0 52 c0 62 52 321 86
428 23 75 51 113 101 139 30 15 53 14 74 -5 17 -15 17 -19 3 -45 -20 -39 -11
-52 79 -127 42 -34 89 -79 105 -99 32 -42 113 -205 105 -213 -10 -11 -168 -12
-204 -1 -50 15 -79 72 -79 159 0 59 -12 88 -24 56 -3 -9 -6 -46 -6 -83 0 -57
4 -74 30 -114 18 -29 39 -49 56 -53 39 -10 391 2 451 16 101 22 134 86 112
211 l-13 74 -8 -88 c-12 -140 -38 -162 -205 -173 -95 -7 -98 -6 -83 12 9 10
21 30 27 44 6 14 21 48 34 75 15 36 53 81 133 158 l110 107 -12 32 c-10 27 -9
36 9 65 17 27 25 32 43 27 65 -20 92 -47 115 -114 13 -38 65 -268 76 -338 l7
-44 -28 15 c-16 8 -48 20 -70 26 -31 8 -44 18 -52 39 -42 114 -56 148 -64 157
-12 14 -10 -3 12 -96 11 -46 23 -94 25 -106 4 -17 13 -23 33 -23 78 0 146 -47
135 -91 -7 -27 -76 -58 -127 -59 -32 0 -37 2 -26 14 6 8 34 22 61 31 81 27 55
62 -49 64 -29 1 -61 -8 -101 -28 -80 -41 -185 -53 -430 -53 -217 1 -252 -5
-279 -48 -15 -24 -6 -25 44 -3 32 14 78 17 269 18 249 2 329 12 407 51 26 13
60 24 74 24 l27 0 -21 -23 c-12 -13 -22 -28 -22 -35 0 -19 43 -42 80 -42 l35
-1 -23 -18 c-27 -24 -175 -81 -207 -81 -13 0 -88 21 -167 46 -158 51 -200 60
-252 50 -56 -11 -43 -23 32 -29 41 -4 126 -26 217 -57 82 -27 160 -50 173 -50
52 0 199 62 300 127 49 31 52 35 48 66 -3 17 -15 89 -26 160 -25 151 -74 356
-95 397 -23 44 -74 78 -146 95 -35 9 -72 19 -81 21 -10 3 -18 2 -18 -2z"/>
<path d="M766 988 c-37 -58 -107 -341 -88 -360 6 -6 15 5 25 34 16 44 86 348
80 348 -1 0 -9 -10 -17 -22z"/>
<path d="M165 330 c3 -5 13 -10 21 -10 11 0 14 -21 14 -114 0 -109 -1 -114
-22 -122 -16 -6 -1 -9 53 -11 42 -2 88 1 102 6 57 22 61 102 6 125 l-30 13 22
14 c29 20 29 67 -1 91 -17 14 -40 18 -97 18 -47 0 -72 -4 -68 -10z m143 -53
c4 -35 -13 -57 -45 -57 -22 0 -24 3 -21 45 3 44 4 46 33 43 25 -2 31 -8 33
-31z m14 -104 c10 -9 18 -21 18 -26 0 -21 -34 -47 -60 -47 -23 0 -29 5 -34 31
-3 17 -6 38 -6 45 0 20 59 18 82 -3z"/>
<path d="M456 319 c-29 -22 -35 -64 -13 -92 6 -9 38 -28 70 -42 39 -17 57 -30
57 -43 0 -27 -20 -42 -54 -42 -36 0 -50 8 -59 32 -8 21 -27 24 -27 4 0 -8 -3
-21 -6 -29 -3 -10 5 -18 27 -26 83 -29 159 1 159 63 0 37 -26 66 -80 86 -47
18 -60 29 -60 50 0 34 72 42 92 10 17 -27 25 -25 31 6 3 20 -1 27 -20 35 -40
15 -89 10 -117 -12z"/>
<path d="M640 331 c0 -5 9 -11 20 -14 18 -5 20 -14 20 -99 1 -57 5 -99 13
-109 40 -52 134 -52 174 0 7 10 12 49 13 98 0 90 5 113 26 113 8 0 14 5 14 10
0 6 -25 10 -55 10 -30 0 -55 -4 -55 -10 0 -5 7 -10 15 -10 20 0 28 -39 23
-116 -5 -73 -20 -94 -69 -94 -44 0 -59 32 -59 123 0 70 2 79 20 84 40 11 18
23 -40 23 -33 0 -60 -4 -60 -9z"/>
<path d="M1055 330 c3 -5 13 -10 21 -10 11 0 14 -21 14 -111 0 -102 -2 -111
-20 -116 -42 -11 -18 -23 46 -23 41 0 63 4 59 10 -3 6 -12 10 -20 10 -17 0
-25 22 -25 71 0 37 2 39 30 39 20 0 30 -5 30 -15 0 -8 5 -15 10 -15 6 0 10 15
10 34 0 34 0 34 -40 29 l-40 -6 0 42 0 41 45 0 c33 0 45 -4 45 -15 0 -8 5 -15
10 -15 6 0 10 14 10 30 l0 30 -96 0 c-61 0 -93 -4 -89 -10z"/>
<path d="M1393 332 c-6 -4 -31 -56 -55 -117 -31 -78 -50 -113 -66 -120 -37
-16 -25 -25 33 -25 50 0 73 12 43 22 -9 3 -9 13 -2 39 9 31 13 34 51 37 41 3
42 2 49 -34 5 -26 3 -39 -7 -45 -24 -14 -3 -20 57 -16 43 2 53 5 37 11 -25 9
-37 33 -84 163 -19 51 -36 93 -39 93 -3 0 -10 -4 -17 -8z m21 -109 c6 -20 4
-23 -18 -23 -30 0 -29 -2 -15 40 12 34 19 30 33 -17z"/>
<path d="M1633 325 c-40 -17 -67 -67 -66 -126 1 -56 25 -97 70 -115 58 -25
139 -11 151 24 3 11 0 12 -16 3 -38 -20 -106 -14 -131 13 -40 42 -40 127 -1
166 24 24 92 27 110 5 19 -23 40 -18 40 9 0 16 -7 26 -22 30 -38 10 -101 6
-135 -9z"/>
<path d="M1820 315 c0 -25 14 -33 25 -15 3 6 19 10 36 10 l29 0 0 -106 c0 -97
-2 -106 -20 -111 -41 -11 -18 -23 45 -23 62 0 91 15 43 22 -22 3 -23 8 -26
111 l-3 107 36 0 c19 0 35 -4 35 -10 0 -5 5 -10 10 -10 6 0 10 11 10 25 l0 25
-110 0 -110 0 0 -25z"/>
</g>
</svg>
